<mxfile>
    <diagram id="mUjmWHGFQMiFrkBGvBQy" name="Page-1">
        <mxGraphModel dx="990" dy="575" grid="1" gridSize="10" guides="1" tooltips="1" connect="1" arrows="1" fold="1" page="1" pageScale="1" pageWidth="827" pageHeight="1169" background="#ffffff" math="0" shadow="0">
            <root>
                <mxCell id="0"/>
                <mxCell id="1" parent="0"/>
                <mxCell id="7" value="" style="rounded=0;whiteSpace=wrap;html=1;fillColor=#FFFFFF;strokeColor=#000000;" parent="1" vertex="1">
                    <mxGeometry x="210" y="310" width="260" height="170" as="geometry"/>
                </mxCell>
                <mxCell id="2" value="Actor" style="shape=umlActor;verticalLabelPosition=bottom;verticalAlign=top;html=1;outlineConnect=0;strokeColor=#050505;" parent="1" vertex="1">
                    <mxGeometry x="120" y="350" width="30" height="60" as="geometry"/>
                </mxCell>
                <mxCell id="5" value="控制空调" style="ellipse;whiteSpace=wrap;html=1;fontColor=#000000;strokeColor=#000000;fillColor=#FFFFFF;" parent="1" vertex="1">
                    <mxGeometry x="300" y="340" width="100" height="40" as="geometry"/>
                </mxCell>
                <mxCell id="6" value="查看金额" style="ellipse;whiteSpace=wrap;html=1;fillColor=#FFFFFF;strokeColor=#1C1C1C;fontColor=#050505;" parent="1" vertex="1">
                    <mxGeometry x="270" y="420" width="100" height="40" as="geometry"/>
                </mxCell>
                <mxCell id="12" value="" style="endArrow=none;html=1;entryX=0.3;entryY=0.288;entryDx=0;entryDy=0;entryPerimeter=0;strokeColor=#000000;" parent="1" target="7" edge="1">
                    <mxGeometry width="50" height="50" relative="1" as="geometry">
                        <mxPoint x="170" y="380" as="sourcePoint"/>
                        <mxPoint x="230" y="290" as="targetPoint"/>
                    </mxGeometry>
                </mxCell>
                <mxCell id="13" value="" style="endArrow=none;html=1;entryX=0.165;entryY=0.712;entryDx=0;entryDy=0;entryPerimeter=0;strokeColor=#000000;" parent="1" target="7" edge="1">
                    <mxGeometry width="50" height="50" relative="1" as="geometry">
                        <mxPoint x="170" y="410" as="sourcePoint"/>
                        <mxPoint x="210" y="335" as="targetPoint"/>
                    </mxGeometry>
                </mxCell>
            </root>
        </mxGraphModel>
    </diagram>
</mxfile>